<svg id="Layer_3" enable-background="new 0 0 64 64" height="512" viewBox="0 0 64 64" width="512" xmlns="http://www.w3.org/2000/svg"><path d="m55 62v-50h-7.762v-8h-38.238v58" fill="#c7e2fc"/><path d="m9 50.975c.333.01.665.025 1 .025 18.225 0 33-14.327 33-32 0-5.422-1.395-10.525-3.849-15h-30.151z" fill="#ebf7fe"/><path d="m29 36h22v22h-22z" fill="#fff"/><path d="m40 48c-1.657 0-3-1.343-3-3v-2c0-1.657 1.343-3 3-3 1.657 0 3 1.343 3 3v2c0 1.657-1.343 3-3 3z" fill="#efbe9a"/><path d="m47 54h-14v-2c0-2.209 1.791-4 4-4h6c2.209 0 4 1.791 4 4z" fill="#e39854"/><path d="m55 12-8-8v8z" fill="#c1c8d1"/><path d="m55 63h-46c-.552 0-1-.447-1-1v-58c0-.552.448-1 1-1h9v2h-8v56h44v-48h-7c-.552 0-1-.448-1-1v-7h-22v-2h23c.552 0 1 .448 1 1v7h7c.552 0 1 .448 1 1v50c0 .553-.448 1-1 1z"/><path d="m50 2.343h2v11.314h-2z" transform="matrix(.707 -.707 .707 .707 9.281 38.406)"/><path d="m19 27c-3.86 0-7-3.14-7-7v-13h2v13c0 2.757 2.243 5 5 5s5-2.243 5-5v-14c0-1.654-1.346-3-3-3s-3 1.346-3 3v14c0 .551.449 1 1 1s1-.449 1-1v-13h2v13c0 1.654-1.346 3-3 3s-3-1.346-3-3v-14c0-2.757 2.243-5 5-5s5 2.243 5 5v14c0 3.86-3.14 7-7 7z"/><path d="m12 53h14v2h-14z"/><path d="m12 57h14v2h-14z"/><path d="m40 49c-2.206 0-4-1.794-4-4v-2c0-2.206 1.794-4 4-4s4 1.794 4 4v2c0 2.206-1.794 4-4 4zm0-8c-1.103 0-2 .897-2 2v2c0 1.103.897 2 2 2s2-.897 2-2v-2c0-1.103-.897-2-2-2z"/><path d="m47 55h-14c-.552 0-1-.447-1-1v-2c0-2.757 2.243-5 5-5h6c2.757 0 5 2.243 5 5v2c0 .553-.448 1-1 1zm-13-2h12v-1c0-1.654-1.346-3-3-3h-6c-1.654 0-3 1.346-3 3z"/><path d="m51 59h-22c-.552 0-1-.447-1-1v-22c0-.553.448-1 1-1h22c.552 0 1 .447 1 1v22c0 .553-.448 1-1 1zm-21-2h20v-20h-20z"/><path d="m32 31h20v2h-20z"/><path d="m32 27h20v2h-20z"/><path d="m32 23h20v2h-20z"/></svg>